<?xml version="1.0" encoding="UTF-8"?> <svg xmlns="http://www.w3.org/2000/svg" xmlns:xlink="http://www.w3.org/1999/xlink" version="1.1" id="Capa_1" x="0px" y="0px" viewBox="0 0 512 512" style="enable-background:new 0 0 512 512;" xml:space="preserve"> <style type="text/css"> .st0{opacity:0.5;} .st1{fill:#E899DC;} .st2{fill:#FFFFFF;} </style> <g> <g id="egg_12_" transform="translate(616 87)" class="st0"> <path id="Path_1_11_" class="st1" d="M-312.9,39.3c97,48.8,113.1,135,75.5,209.8s-114.7,109.6-211.7,60.8S-635.6,140.2-598,65.4 C-560.3-9.4-410-9.6-312.9,39.3z"></path> </g> <g id="egg_11_" transform="translate(616 87)" class="st0"> <path id="Path_1_10_" class="st1" d="M-328.2,327.6c-107.7,19.5-173-40.5-188.1-124C-531.4,120-490.6,45-382.8,25.5 s253.2,24,268.3,107.5S-220.4,308.1-328.2,327.6z"></path> </g> </g> <g> <path class="st2" d="M281.2,229.6H178c-9.4,0-16.9,7.7-16.9,16.9v60.3c0,9.4,7.7,16.9,16.9,16.9h17.4v28.6c0,1.2,0.8,2.3,1.7,2.6 c0.3,0,0.5,0.3,1.2,0.3c0.8,0,1.4-0.3,2-0.8l27.7-30.6h53.2c9.4,0,16.9-7.7,16.9-16.9v-60.3C298.2,237.3,290.7,229.6,281.2,229.6z"></path> <path class="st2" d="M315.9,187.1l-97.7-0.3c-9.4,0-16.9,7.7-16.9,16.9v17.4c0,0.8,0.3,1.4,0.8,2c0.5,0.5,1.2,0.8,2,0.8l0,0 l71.7-0.3c25.7,0,28.3,5.7,28.3,22.6v60.3c0,0.3,0,0.5,0,0.8l3.7,4c0.5,0.5,1.4,0.8,2,0.8c0.3,0,0.5,0,1.2-0.3 c1.2-0.3,1.7-1.4,1.7-2.6v-28.6h3.1c9.4,0,16.9-7.7,16.9-16.9v-60C332.7,194.5,325,187.1,315.9,187.1z"></path> </g> </svg> 