<?xml version="1.0" encoding="UTF-8"?> <svg xmlns="http://www.w3.org/2000/svg" xmlns:xlink="http://www.w3.org/1999/xlink" version="1.1" id="Layer_1" x="0px" y="0px" viewBox="0 0 512 512" style="enable-background:new 0 0 512 512;" xml:space="preserve"> <style type="text/css"> .st0{opacity:0.53;} .st1{fill:#55D284;} .st2{fill:#FFFFFF;} </style> <g> <g id="egg_6_" transform="translate(616 87)" class="st0"> <path id="Path_1_5_" class="st1" d="M-312.7,38.6c97.5,49.1,113.7,135.7,75.8,210.9s-115.2,110.2-212.7,61.1 S-637,140.1-599.2,64.9C-561.3-10.3-410.2-10.5-312.7,38.6z"></path> </g> <g id="egg_5_" transform="translate(616 87)" class="st0"> <path id="Path_1_4_" class="st1" d="M-328,328.4c-108.3,19.6-173.9-40.7-189.1-124.7c-15.2-83.9,25.9-159.4,134.2-179 s254.5,24.1,269.7,108S-219.7,308.8-328,328.4z"></path> </g> </g> <g> <g> <g> <path class="st2" d="M276.2,217.8l-15.7-2.3l-7-14.3c-2.4-4.9-9.4-4.9-11.9,0l-7,14.3l-15.7,2.3c-5.4,0.7-7.6,7.5-3.7,11.3 l11.3,11.1l-2.7,15.7c-0.9,5.4,4.8,9.5,9.6,7l14.1-7.4l14.3,7.4c4.8,2.6,10.5-1.6,9.6-7l-2.7-15.7l11.4-11.1 C283.9,225.3,281.7,218.6,276.2,217.8z"></path> <path class="st2" d="M343.6,318.6l-40-69.4c12.6-38-15.7-77.5-55.9-77.5s-68.5,39.5-55.9,77.5l-40,69.5 c-2.8,4.8,1.4,10.9,6.9,9.8l25.9-4.7l8.9,24.8c1.9,5.3,9.1,6,12,1.1l34.9-60.5c4.9,0.6,9.8,0.6,14.7,0l34.9,60.5 c2.8,4.9,10.1,4.2,12-1.1l8.9-24.8l25.9,4.7C342.2,329.4,346.4,323.4,343.6,318.6z M200.9,330.6L195,314c-1.1-3-4.3-4.8-7.4-4.3 l-17.4,3.1l28.4-49.4c6.8,10.1,16.6,17.9,28.1,22.3L200.9,330.6z M205,247.4c-11.9-30,10.1-62.5,42.4-62.5s54.3,32.5,42.4,62.5 C274.7,286.2,220.2,285.5,205,247.4z M307.6,309.7c-3.2-0.5-6.3,1.3-7.4,4.3l-5.9,16.5l-25.9-44.8c11.2-4.3,20.8-11.5,28.1-22.3 l28.4,49.3L307.6,309.7z"></path> </g> </g> </g> </svg> 