<?xml version="1.0" encoding="UTF-8"?> <svg xmlns="http://www.w3.org/2000/svg" viewBox="0 0 152.24 152.67"><defs><style>.cls-1{isolation:isolate;}.cls-2{fill:#e53946;}.cls-3{mix-blend-mode:multiply;}.cls-4{fill:#ccc;}.cls-5{fill:#457b9c;}.cls-6{fill:#6b3b55;}.cls-7{fill:#804665;}.cls-8{mix-blend-mode:screen;}.cls-9{fill:#8f8f8f;}.cls-10{fill:#fff;}.cls-11{fill:#f0f9ed;}.cls-12{fill:#4b4b55;}.cls-13{fill:#d1d1d1;}</style></defs><g class="cls-1"><g id="Layer_2" data-name="Layer 2"><g id="Layer_1-2" data-name="Layer 1"><path class="cls-2" d="M148.65,74.32A74.33,74.33,0,1,1,74.33,0,74.33,74.33,0,0,1,148.65,74.32Z"></path><g class="cls-3"><path class="cls-4" d="M148.32,81.19c-9.56-9.55-40.76-40.76-40.87-40.87A46.51,46.51,0,0,0,41.67,106.1l.41.38,41.54,41.57A74.34,74.34,0,0,0,148.32,81.19Z"></path></g><path class="cls-5" d="M150.48,142.39a6,6,0,0,1,0,8.51h0a6,6,0,0,1-8.52,0l-24.35-24.35a6,6,0,0,1,0-8.51h0a6,6,0,0,1,8.52,0Z"></path><path class="cls-6" d="M120,106.18a9.46,9.46,0,0,1,0,13.36h0a9.45,9.45,0,0,1-13.36,0L104,116.9a9.45,9.45,0,0,1,0-13.35h0a9.45,9.45,0,0,1,13.36,0Z"></path><path class="cls-7" d="M105.12,104.72a8.36,8.36,0,0,0-1.12,1.41,8.07,8.07,0,0,1,10,1.12l2.26,2.25a8.05,8.05,0,0,1,1.11,10,8.43,8.43,0,0,0,1.42-1.12,8.06,8.06,0,0,0,0-11.4l-2.25-2.25A8.05,8.05,0,0,0,105.12,104.72Z"></path><g class="cls-8"><path class="cls-9" d="M52.42,95.21c-.58-.49-1.14-1-1.69-1.56a28.9,28.9,0,0,1,0-40.88,28.41,28.41,0,0,1,3.67-3.1,35.9,35.9,0,0,0-2,45.54Z"></path></g><path class="cls-10" d="M41.67,40.32a46.51,46.51,0,1,0,65.78,0A46.5,46.5,0,0,0,41.67,40.32Zm57.2,57.21a34.39,34.39,0,1,1,0-48.64A34.4,34.4,0,0,1,98.87,97.53Z"></path><path class="cls-11" d="M45,43.61a41.86,41.86,0,1,0,59.21,0A41.87,41.87,0,0,0,45,43.61ZM98.87,97.53a34.39,34.39,0,1,1,0-48.64A34.4,34.4,0,0,1,98.87,97.53Z"></path><path class="cls-12" d="M145,147.13a1.67,1.67,0,0,1,0,2.34h0a1.67,1.67,0,0,1-2.34,0l-24-24a1.65,1.65,0,0,1,0-2.33h0a1.65,1.65,0,0,1,2.34,0Z"></path><path class="cls-13" d="M47.39,103.92a43.94,43.94,0,0,1,0-62.13c7-7,17-9.55,26.16-10.81C63,31.45,51.47,34.08,43.4,42.15a43.92,43.92,0,0,0,0,62.12c10.1,10.12,23.91,12.6,37.05,10.8C68.56,115.61,56.48,113,47.39,103.92Z"></path><path class="cls-11" d="M63.07,67.48H55.76v5h8.57v3.06H52V57H64.31v3.08H55.76V64.5h7.31Z"></path><path class="cls-11" d="M81.17,60.11H75.51V75.49H71.7V60.11H66.13V57h15Z"></path><path class="cls-11" d="M98.53,69.33a6.54,6.54,0,0,1-2.2,4.7,7.75,7.75,0,0,1-5.23,1.71,7,7,0,0,1-5.59-2.39,9.83,9.83,0,0,1-2-6.56V65.66A11,11,0,0,1,84.42,61a6.91,6.91,0,0,1,2.68-3.12,8.38,8.38,0,0,1,9.19.63,7,7,0,0,1,2.26,4.81h-3.8a3.78,3.78,0,0,0-1-2.59,3.67,3.67,0,0,0-2.6-.81,3.24,3.24,0,0,0-2.85,1.37,7.53,7.53,0,0,0-1,4.22v1.39a8.13,8.13,0,0,0,.91,4.38,3.17,3.17,0,0,0,2.86,1.38,3.8,3.8,0,0,0,2.63-.8,3.7,3.7,0,0,0,1-2.5Z"></path><path class="cls-11" d="M57.52,81.35V87a2.88,2.88,0,0,1-.87,2.21,3.38,3.38,0,0,1-2.4.82,3.42,3.42,0,0,1-2.36-.79A2.81,2.81,0,0,1,51,87V81.35h1.75V87a1.68,1.68,0,0,0,.4,1.23,1.57,1.57,0,0,0,1.11.38c1,0,1.49-.52,1.51-1.56V81.35Z"></path><path class="cls-11" d="M60.65,83.54l.05.73a2.23,2.23,0,0,1,1.83-.85A1.86,1.86,0,0,1,64,84a2.85,2.85,0,0,1,.5,1.77v4.09H62.84V85.82A1.07,1.07,0,0,0,62.6,85a1.06,1.06,0,0,0-.78-.24,1.17,1.17,0,0,0-1.07.6v4.47H59.06V83.54Z"></path><path class="cls-11" d="M66,81.9a.84.84,0,0,1,.26-.63,1.11,1.11,0,0,1,1.38,0,.84.84,0,0,1,.26.63.83.83,0,0,1-.26.63.93.93,0,0,1-.69.25,1,1,0,0,1-.69-.25A.83.83,0,0,1,66,81.9Zm1.8,8H66.15V83.54h1.69Z"></path><path class="cls-11" d="M71.85,87.81,73,83.54H74.8l-2.14,6.33H71.05l-2.14-6.33h1.77Z"></path><path class="cls-11" d="M78.7,90a3.1,3.1,0,0,1-2.26-.86,3,3,0,0,1-.88-2.27v-.17a3.76,3.76,0,0,1,.37-1.7,2.67,2.67,0,0,1,1-1.16,3,3,0,0,1,1.55-.41,2.62,2.62,0,0,1,2,.82,3.32,3.32,0,0,1,.75,2.32v.7h-4a1.57,1.57,0,0,0,.49,1,1.48,1.48,0,0,0,1,.38,1.83,1.83,0,0,0,1.53-.71l.83.93a2.46,2.46,0,0,1-1,.84A3.37,3.37,0,0,1,78.7,90Zm-.19-5.2a1.05,1.05,0,0,0-.82.34,1.77,1.77,0,0,0-.4,1h2.36V86a1.22,1.22,0,0,0-.31-.87A1.06,1.06,0,0,0,78.51,84.79Z"></path><path class="cls-11" d="M86.07,85.12a4.62,4.62,0,0,0-.6,0,1.24,1.24,0,0,0-1.27.65v4.14H82.52V83.54h1.59l0,.75a1.57,1.57,0,0,1,1.41-.87,1.84,1.84,0,0,1,.53.08Z"></path><path class="cls-11" d="M90.57,88.12a.57.57,0,0,0-.31-.49,3.68,3.68,0,0,0-1-.32C87.77,87,87,86.36,87,85.4a1.72,1.72,0,0,1,.7-1.41,2.82,2.82,0,0,1,1.83-.57,3,3,0,0,1,1.93.57,1.79,1.79,0,0,1,.72,1.47H90.5a.81.81,0,0,0-.23-.59,1,1,0,0,0-.74-.24,1,1,0,0,0-.66.19.62.62,0,0,0-.23.49.52.52,0,0,0,.26.45,2.58,2.58,0,0,0,.9.3,7.64,7.64,0,0,1,1.07.29,1.74,1.74,0,0,1,1.34,1.7,1.65,1.65,0,0,1-.74,1.4,3.22,3.22,0,0,1-1.93.54,3.3,3.3,0,0,1-1.4-.29,2.21,2.21,0,0,1-1-.77,1.79,1.79,0,0,1-.36-1.07h1.61a.85.85,0,0,0,.33.69,1.32,1.32,0,0,0,.83.24,1.21,1.21,0,0,0,.74-.19A.58.58,0,0,0,90.57,88.12Z"></path><path class="cls-11" d="M96.46,90a3.1,3.1,0,0,1-2.26-.86,3,3,0,0,1-.88-2.27v-.17a3.76,3.76,0,0,1,.37-1.7,2.67,2.67,0,0,1,1-1.16,3,3,0,0,1,1.55-.41,2.62,2.62,0,0,1,2,.82,3.32,3.32,0,0,1,.75,2.32v.7H95a1.57,1.57,0,0,0,.49,1,1.5,1.5,0,0,0,1,.38,1.82,1.82,0,0,0,1.53-.71l.83.93a2.46,2.46,0,0,1-1,.84A3.37,3.37,0,0,1,96.46,90Zm-.19-5.2a1.05,1.05,0,0,0-.82.34,1.77,1.77,0,0,0-.4,1h2.36V86a1.22,1.22,0,0,0-.31-.87A1.06,1.06,0,0,0,96.27,84.79Z"></path></g></g></g></svg> 