<?xml version="1.0" encoding="UTF-8"?> <svg xmlns="http://www.w3.org/2000/svg" viewBox="0 0 148.65 148.65"><defs><style>.cls-1{isolation:isolate;}.cls-2{fill:#e53946;}.cls-3{mix-blend-mode:multiply;}.cls-4{fill:#ccc;}.cls-5{fill:#f2ce9e;}.cls-6{fill:#f0f9ed;}.cls-7{fill:#e0bf93;}.cls-8{fill:#a7d9db;}.cls-9{fill:#b59a76;}.cls-10{fill:#d4b790;}.cls-11{fill:#ccae86;}.cls-12{fill:#f2e2ce;}</style></defs><g class="cls-1"><g id="Layer_2" data-name="Layer 2"><g id="Layer_1-2" data-name="Layer 1"><circle class="cls-2" cx="74.32" cy="74.32" r="74.32" transform="translate(-6.97 140.94) rotate(-84.33)"></circle><g class="cls-3"><path class="cls-4" d="M.24,80c.07,1,.17,2,.29,3,0,.48.11,1,.17,1.41.14,1,.31,2,.48,3,.08.4.14.8.22,1.2.27,1.36.56,2.71.9,4v0H3.44c.11.48,53.81,53.81,53.81,53.81a.64.64,0,0,1,0,.07,74.28,74.28,0,0,0,89.34-89.58h0c-.12-.49-.2-1-.33-1.46H122v1.71h-1.47L117.92,59h0c-3.52-1.51-9.78-.82-13.13-3.35a28.61,28.61,0,0,0-10.27-4.57,9.19,9.19,0,0,0-1.9-.42l-.48,0-.79-.12L72.11,47.26,71,47.07a5,5,0,0,0-4,1.09l-6,4.92c-1.46-.31-3-.62-4.61-.9-2.62-.45-11.16,1.55-16.9,3.44-3.73,1.23-7.34,1.13-9.43,2.66l-1.83-.71v-.49H26.7V55.62H2.38c-.37,1.4-.68,2.82-1,4.24-.07.36-.13.71-.19,1.06C1,62,.86,63.05.71,64.12c-.06.46-.12.93-.17,1.39-.12,1-.22,2.06-.3,3.11,0,.43-.07.87-.1,1.3C.06,71.38,0,72.85,0,74.32s.05,2.92.14,4.36C.16,79.12.2,79.55.24,80Z"></path></g><polygon class="cls-5" points="6.16 91.06 6.16 57.33 27.55 57.33 30.73 58.58 30.73 91.06 6.16 91.06"></polygon><path class="cls-6" d="M0,74.32A74.4,74.4,0,0,0,2.31,92.78H26.7V55.62H2.38A74.41,74.41,0,0,0,0,74.32Z"></path><path class="cls-5" d="M82.06,69.7c0-8.54-6.14-14.13-25.75-17.52-2.62-.45-11.16,1.55-16.9,3.44s-11.25.6-11.25,7.08V86.17c0,6.48,4,6.52,11.73,7.63,0,0,20.11,3.09,23.21,3.28-1-1.5,5.44-3.7,11.26-8.33C75.13,84.2,80.74,74.15,82.06,69.7Z"></path><polygon class="cls-7" points="142.49 91.06 142.49 57.33 120.48 57.33 117.92 58.97 117.92 88.03 120.48 91.06 142.49 91.06"></polygon><path class="cls-8" d="M122,92.78h24.38a74.63,74.63,0,0,0-.06-37.16H122Z"></path><path class="cls-7" d="M78.25,74.26c0-5-8.14-10.75-11.41-15.44-2.27-3.26,15.72-5.47,19.41-8,2.2-1.48,12.36.09,18.54,4.76,4.83,3.65,15.69.6,15.69,7.08V86.17c-7.62,7.36-46.23,15-52.46,10.17C69,94.84,79.56,78.71,78.25,74.26Z"></path><path class="cls-5" d="M63.81,70.88l23,23.05a3.77,3.77,0,0,1-5.19,5.46L57.5,77.52a4.58,4.58,0,1,1,6.15-6.79A1.14,1.14,0,0,1,63.81,70.88Z"></path><path class="cls-5" d="M76.37,101.48a4.35,4.35,0,0,1-2.64-.89L59.61,90a4.4,4.4,0,0,1,5.3-7L79,93.56a4.41,4.41,0,0,1-2.66,7.92Z"></path><path class="cls-5" d="M68,100a2.92,2.92,0,0,1-2.1-.89l-4.45-4.59a2.93,2.93,0,1,1,4.21-4.08L70.13,95A2.94,2.94,0,0,1,68,100Z"></path><path class="cls-9" d="M70.79,98.46,69.26,97c-.91-.91-2.08-2.16-3.27-3.38s-2.34-2.49-3.23-3.41c-.46-.45-.83-.83-1.12-1.07a5.29,5.29,0,0,0-.47-.34,4.51,4.51,0,0,1,.52.28,14,14,0,0,1,1.24,1c1,.84,2.19,2,3.39,3.28s2.3,2.53,3.12,3.53S70.79,98.46,70.79,98.46Z"></path><path class="cls-10" d="M65.55,100.9a2.87,2.87,0,0,1-1.92-.72A2.93,2.93,0,0,1,63.35,96l1.89-2.17a2.93,2.93,0,0,1,4.43,3.85l-1.9,2.18A3,3,0,0,1,65.55,100.9Z"></path><path class="cls-10" d="M59.14,101.64a3.61,3.61,0,0,1-1.83-.5,3.66,3.66,0,0,1-1.34-5l1.9-3.29a3.67,3.67,0,0,1,6.35,3.67l-1.9,3.29A3.67,3.67,0,0,1,59.14,101.64Z"></path><path class="cls-10" d="M51.13,99.92a3.92,3.92,0,0,1-1.69-.38,4,4,0,0,1-2-5.35L49,90.78a4,4,0,1,1,7.33,3.37l-1.58,3.42A4,4,0,0,1,51.13,99.92Z"></path><path class="cls-10" d="M42.45,98.63a4.39,4.39,0,0,1-3.83-6.55l1.7-3A4.4,4.4,0,0,1,48,93.36l-1.7,3A4.39,4.39,0,0,1,42.45,98.63Z"></path><path class="cls-9" d="M69.4,62.33l4.79,4.1,4.87,4.29c.88.79,1.8,1.61,2.73,2.49S83.69,75,84.66,76l2.62,2.76c.83.87,1.7,1.87,2.51,2.76,1.63,1.82,3.07,3.52,4.3,5s2.22,2.79,2.92,3.72l1.12,1.53a4.65,4.65,0,0,1-7.4,5.64l-.19-.23L89.6,96C89,95.19,88,94,86.8,92.69s-2.63-2.93-4.18-4.54c-.8-.81-1.53-1.61-2.44-2.49l-2.6-2.54c-.83-.76-1.66-1.52-2.59-2.3s-1.8-1.52-2.69-2.25l-4.9-4-4.85-3.82,0,0a5.44,5.44,0,1,1,6.73-8.55Z"></path><path class="cls-5" d="M67.29,60.35,72.12,65c2.9,2.8,6.78,6.69,10.64,10.51,1.08,1,1.89,2,2.83,2.95s1.82,2,2.7,3c1.76,2,3.3,3.81,4.62,5.43s2.38,3,3.12,4l1.18,1.63a4.65,4.65,0,0,1-7.41,5.62l-.16-.2-1-1.32c-.7-.87-1.73-2.12-3-3.59s-2.83-3.17-4.49-4.91c-.84-.87-1.66-1.75-2.63-2.69s-1.93-2-2.82-2.75c-3.93-3.6-7.78-7.18-10.79-9.89l-5-4.5a5.44,5.44,0,0,1,7.28-8.08A1,1,0,0,1,67.29,60.35Z"></path><path class="cls-11" d="M88.86,67.25,69.14,60.07l4.77-1L62.2,66.81l.46-.38-7.22,6.34a4.87,4.87,0,0,1-6.64-7.12l6.83-6.77.06-.06.4-.32L67,49.62a5,5,0,0,1,3.63-1.1l1.14.1,20.9,2A8.59,8.59,0,0,1,91,67.73,9.13,9.13,0,0,1,88.86,67.25Z"></path><path class="cls-7" d="M88.3,67.1,68.75,58.5l5.16-.9L62.2,65.34l.46-.38L55.44,71.3a4.87,4.87,0,0,1-6.64-7.12l6.83-6.76.06-.07.4-.31L67,48.16a5,5,0,0,1,4-1.09l1.12.19,21.06,3.52a8.58,8.58,0,1,1-2.83,16.93A8.75,8.75,0,0,1,88.3,67.1Z"></path><path class="cls-12" d="M49.82,63.77S51,62.89,51,63.39a11.64,11.64,0,0,0-2.15,3.3,13.12,13.12,0,0,0-.64,2.06S46.68,66.5,49.82,63.77Z"></path><path class="cls-12" d="M41.08,88.76a4,4,0,0,1,4.07-1.27c2.49.69,2.06,4.23,2.06,4.23Z"></path><path class="cls-12" d="M49.62,90.79a4,4,0,0,1,4.07-1.27c2.49.69,2.07,3.93,2.07,3.93Z"></path><path class="cls-12" d="M58.57,93A3.39,3.39,0,0,1,62,91.89c2.1.58,1.74,3.55,1.74,3.55Z"></path><path class="cls-12" d="M65.29,94.6a2.78,2.78,0,0,1,2.81-.87c1.71.47,1.51,3.11,1.51,3.11Z"></path><path class="cls-9" d="M88.11,96.1l-2.55-2.53L80,87.91l-5.49-5.69c-.76-.76-1.38-1.42-1.85-1.83a4.17,4.17,0,0,0-.56-.47l-.21-.14.22.13a3.76,3.76,0,0,1,.59.42c.5.39,1.19,1,2,1.71,1.59,1.46,3.63,3.5,5.64,5.56s4,4.19,5.39,5.8Z"></path><path class="cls-9" d="M80.59,98.46s-.94-.92-2.37-2.28l-5.13-5.1C71.23,89.22,69.38,87.35,68,86c-.71-.69-1.28-1.28-1.72-1.65a3.34,3.34,0,0,0-.52-.41l-.19-.14a5.41,5.41,0,0,1,.76.5c.46.34,1.1.86,1.84,1.52,1.48,1.31,3.37,3.14,5.24,5s3.67,3.78,5,5.23S80.59,98.46,80.59,98.46Z"></path></g></g></g></svg> 