<?xml version="1.0" encoding="UTF-8"?> <svg xmlns="http://www.w3.org/2000/svg" viewBox="0 0 148.65 148.65"><defs><style>.cls-1{isolation:isolate;}.cls-2{fill:#e53946;}.cls-3{mix-blend-mode:multiply;}.cls-4{fill:#ccc;}.cls-5{fill:#dbd5d5;}.cls-6{fill:#161313;}.cls-7{fill:#d1ab86;}.cls-8{fill:#ffe2c2;}.cls-9{fill:#fff8f8;}.cls-10{fill:#333030;}.cls-11{fill:#0c0a0a;}.cls-12{fill:#916826;}.cls-13{fill:#d13440;}</style></defs><g class="cls-1"><g id="Layer_2" data-name="Layer 2"><g id="Layer_1-2" data-name="Layer 1"><path class="cls-2" d="M148.65,74.32A74.33,74.33,0,1,1,74.33,0,74.33,74.33,0,0,1,148.65,74.32Z"></path><g class="cls-3"><path class="cls-4" d="M11.39,96.47l-1,6,42.87,43.12a74.3,74.3,0,0,0,95.4-71.27c0-.24,0-.48,0-.73-6.6-6.66-20.12-20.16-20.45-20.36a3,3,0,0,0-2.2-1.47,4.2,4.2,0,0,0-.59-.5,4.51,4.51,0,0,0-1.09-1.09,4.7,4.7,0,0,0-1.09-1.09c-3-4.24-15-3.86-19.86,4.09-.19-.19-13.42-13.41-13.68-13.64a3,3,0,0,0-.32-.37c-.25-.26-.51-.48-.77-.72a2.37,2.37,0,0,0-.32-.37c-6.71-6.79-14.62-5.54-19-4.46-5.26,1.29-9.4,6.26-10.63,10.6a21.13,21.13,0,0,0-.13,9.71,1.2,1.2,0,0,0-1.08-.3c-.93.33-1.05,2.42-.26,4.68a6.5,6.5,0,0,0,2.15,3,6.31,6.31,0,0,0,1.09,1.1,6.16,6.16,0,0,0,1.09,1.08.76.76,0,0,0,.08.11,27.06,27.06,0,0,0,3.38,5.58v3.24l-.51-.3L64.22,72a5.36,5.36,0,0,0-1.09-1.09A5.17,5.17,0,0,0,62,69.79c-.3-.42-18.78-21.65-19.2-22s-3.29-.64-3.7-.95c-1.15-1.58-3-2.42-5.84-2.36-11,.71-9.2,7.47-11.44,18-.66,3.74.71,6.21,3.36,10.49,1.83,3.6,1.91,9.75.93,13l-5.5.76L19,88"></path></g><polygon class="cls-5" points="123.66 82.23 107.22 81.98 105.35 82.47 104.7 82.79 104.86 83.25 109.97 97.62 111.46 101.5 119.93 101.5 120.73 97.89 125.18 83.31 125.36 82.71 123.66 82.23"></polygon><path class="cls-6" d="M104.86,83.25C97,84.8,90.92,88.34,90.92,94l-.64,7.5h21.18L110,97.62Z"></path><path class="cls-6" d="M119.93,101.5H140.4l-.64-7.5c0-5.46-6.41-9.07-14.58-10.69l-4.45,14.58Z"></path><path class="cls-7" d="M120.48,75.73H110.2c-1.77,0-3.21,1.12-3.21,2.51v6.47c0,1.39,1.44,2.51,3.21,2.51h10.28a3.12,3.12,0,0,0,3.14-2l.08,0v-7C123.7,76.85,122.26,75.73,120.48,75.73Z"></path><path class="cls-8" d="M130.43,63.81c-.4-.11-.86.14-1.3.65,0-.25,0-.5,0-.75,0-8.09-6.18-14.66-13.81-14.66s-13.8,6.57-13.8,14.66c0,.25,0,.5,0,.75-.44-.51-.89-.76-1.3-.65-1,.27-1.26,2.52-.65,5s1.9,4.35,2.87,4.08c.34-.09.6-.44.76-1,2.35,6.06,6.89,11.55,12.11,11.55S125.1,78,127.45,72c.16.52.42.87.76,1,1,.27,2.26-1.56,2.87-4.08S131.4,64.08,130.43,63.81Z"></path><path class="cls-9" d="M106.86,82.6s.27,2.38,5,3.68,1.57,4.32,1.57,4.32l-3.68.7-2.15-3.89-.92-3Z"></path><path class="cls-9" d="M123.82,83s-.27,2.37-5,3.67S117.29,91,117.29,91l3.67.7,2.16-3.89.91-3Z"></path><polygon class="cls-10" points="105.43 81.58 101.27 83.52 109.97 97.62 105.43 81.58"></polygon><polygon class="cls-10" points="125.27 81.85 129.43 83.79 120.73 97.89 125.27 81.85"></polygon><polygon class="cls-11" points="114.79 92.31 112.48 101.43 118.88 101.43 116.25 92.31 114.79 92.31"></polygon><polygon class="cls-11" points="113.61 86.95 117.42 87.01 118.13 89.82 117.34 92.68 113.75 92.68 112.89 90 113.61 86.95"></polygon><path class="cls-12" d="M123.8,52.06c1.83-9.16-25.57-8.68-22.25,12.4L103.23,72l1-6.16.32-4.7s9.31,4.69,17.06-5c2.88,1.29,4.52,3.76,5.09,9.68l.79,6.22,1.68-7.51S131.5,49.28,123.8,52.06Z"></path><polygon class="cls-5" points="42.26 82.09 26.21 81.84 24.39 82.35 23.76 82.69 23.92 83.17 28.9 98.37 30.35 102.47 38.61 102.47 39.4 98.66 43.73 83.24 43.91 82.61 42.26 82.09"></polygon><path class="cls-6" d="M23.92,83.17c-4.53,5.89-11.83,6.75-13.12,13.89l-.42,5.41h20l-1.45-4.1Z"></path><path class="cls-6" d="M38.61,102.47H57.9l-.42-5.41c-1-4.86-6.48-7.2-13.75-13.82L39.4,98.66Z"></path><path class="cls-7" d="M39.16,74.73h-10A3,3,0,0,0,26,77.49v7.12a3,3,0,0,0,3.13,2.76h10a3,3,0,0,0,3.05-2.18l.08,0V77.49A3,3,0,0,0,39.16,74.73Z"></path><path class="cls-8" d="M48.86,61.62c-.39-.12-.84.15-1.27.72,0-.28,0-.55,0-.83,0-8.91-6-16.13-13.47-16.13S20.67,52.6,20.67,61.51c0,.28,0,.55,0,.83-.43-.57-.88-.84-1.27-.72-.94.29-1.23,2.78-.63,5.55s1.85,4.78,2.79,4.49c.34-.1.59-.49.75-1.06,2.29,6.67,6.72,12.7,11.81,12.7s9.52-6,11.81-12.7c.16.57.41,1,.74,1.06,1,.29,2.2-1.72,2.8-4.49S49.8,61.91,48.86,61.62Z"></path><path class="cls-9" d="M25.87,82.49s.26,2.52,4.85,3.89S32.24,91,32.24,91l-3.58.74-2.11-4.11-.89-3.15Z"></path><path class="cls-9" d="M42.41,83s-.27,2.51-4.85,3.88S36,91.4,36,91.4l3.59.74L41.72,88l.9-3.14Z"></path><polygon class="cls-10" points="24.65 82.09 19.67 85.05 28.9 98.37 24.65 82.09"></polygon><polygon class="cls-10" points="43.73 82.03 48.93 85.95 39.4 98.66 43.73 82.03"></polygon><polygon class="cls-11" points="33.49 92.81 31.05 102.45 37.82 102.45 35.03 92.81 33.49 92.81"></polygon><polygon class="cls-11" points="32.25 87.15 36.27 87.2 37.02 90.17 36.19 93.2 32.39 93.2 31.48 90.37 32.25 87.15"></polygon><path class="cls-6" d="M48.47,58.66a12.51,12.51,0,0,0-1.12-6.49c-3.28-5.86-7.55-9-13.25-8.35-5.52.76-8.65,2.79-9.6,6-2.57.67-4.17,3-4.16,8a11.63,11.63,0,0,0-1.66,9,1.84,1.84,0,0,1,2.83-.32l.82,4.14c-.43-6.67,1.74-10,2.81-13.61,1.71,3.69,5.57,5.61,10.68,6.48-1.78-1.53-2.69-3.19-1.72-5.14.72,2.51,2.59,4,5.15,4.8A7.92,7.92,0,0,1,37,57.42a12.52,12.52,0,0,0,6.17,6.4c-1.24-1.66-2.16-3.38-1.6-5.37,2.91,3.9,3.79,8,4.42,12.15l.82-4.15a1.84,1.84,0,0,1,2.82.33A11.59,11.59,0,0,0,48.47,58.66Z"></path><path class="cls-13" d="M105.6,82.05c-2.3-2.91-10-4.32-12.15-4.65L91.78,77l-1.1-.61-3.6-2.8a2.4,2.4,0,0,1-.78-1.66l-.14-2.66a28.84,28.84,0,0,0,3.19-5.67,8.12,8.12,0,0,0,4-4.62,7.87,7.87,0,0,0,.18-5.69A2.9,2.9,0,0,0,92.42,52c.12-.85-1.19-7-2.1-11.28-.86.18-1.37-.5-2.35-.5h-.1c3.63,5.67,2.38,14.44-3.75,18,2.34,7.18-1.39,16.6-11.21,16.6-3.94,0-6.8-.79-8.78-3.06A13.05,13.05,0,0,1,62.34,70l-.1,1.86a2.35,2.35,0,0,1-.75,1.65l-3.67,3.08-.28.16-2.28.58c-2.35.37-10,1.78-12.34,4.69-4.1,4.1-3.49,27.39-3.28,28.39a2.13,2.13,0,0,0,1.73,1.77c.25,0,.44.07,8.23.07,7.4,0,17.71,0,20.6,0,3.73,0,17,0,26.55,0,10,0,10.16,0,10.39-.07a2.12,2.12,0,0,0,1.75-1.77C109.1,109.44,109.71,86.15,105.6,82.05Z"></path><path class="cls-5" d="M76.61,106.81l16.1-25.73L84.29,74.8,63.38,76.28l-7.94,7.47,17.92,24.92C74.43,108,75.52,107.39,76.61,106.81Z"></path><path class="cls-6" d="M61.63,77.81l-6.06,1.54s-9.42,1.48-11.15,4.05c-3.12,2-3.34,26.73-2.72,26.83s29.29,0,29.29,0c1.08-.76,2.18-1.44,3.27-2.1v0Z"></path><path class="cls-6" d="M86.9,77.81,93,79.35s9.42,1.48,11.15,4.05c3.12,2,3.34,26.73,2.72,26.83s-37.65,0-37.65,0c-1.08-.76,2.84-1.15,5.08-2.1v0Z"></path><rect class="cls-7" x="64.91" y="64.71" width="18.73" height="14.63"></rect><path class="cls-8" d="M89.42,55.35C88.27,66.66,79.73,75.07,74.3,75.07c-5.81,0-13.77-8.64-15.13-19.72C57.85,44.54,65.94,39,74.3,39S90.53,44.51,89.42,55.35Z"></path><path class="cls-11" d="M58.59,44.21c1.23-4.34,5.37-9.31,10.63-10.6,4.42-1.08,12.33-2.33,19,4.46.88.89,2.85,7.83,2.64,9.81-.77,7.15-1.43,9.17-1.43,9.17l-1.79.84a9.56,9.56,0,0,0-.3-5.86,13.8,13.8,0,0,0-1.22-2.57c-7.68,4.25-19.53,5.07-24.81,5.22a8.39,8.39,0,0,0,.27,3.21l-1.8-.84a19.57,19.57,0,0,1-.5-2.34h-.67A21.53,21.53,0,0,1,58.59,44.21Z"></path><path class="cls-8" d="M60.49,57.12c.79,2.27,1.4,4.45.46,4.77s-3.05-1.33-3.83-3.59-.67-4.35.26-4.68S59.71,54.86,60.49,57.12Z"></path><path class="cls-8" d="M88,57.12c-.78,2.27-1.39,4.45-.45,4.77s3-1.33,3.83-3.59.68-4.35-.25-4.68S88.83,54.86,88,57.12Z"></path><polygon class="cls-11" points="78.98 81.77 74.26 85.72 69.55 81.77 74.26 77.81 78.98 81.77"></polygon><polygon class="cls-11" points="73.42 84.81 70.65 98.36 74.07 109.51 78.33 98.36 75.17 84.81 73.42 84.81"></polygon><path class="cls-9" d="M64.24,72l10,5.82-3.29,7-7.83-7.25s-2.06-.53-1.37-1.46S64.12,74.38,64.24,72Z"></path><path class="cls-9" d="M84.3,72l-10,5.81,3.29,7,7.82-7.23s2-.53,1.37-1.45S84.43,74.39,84.3,72Z"></path><polygon class="cls-10" points="74.26 108.1 62.8 75.07 58.96 78.3 54.94 80.45 59.86 88.67 62.12 88.62 60.69 93.38 74.26 108.1"></polygon><polygon class="cls-10" points="74.27 108.1 85.73 75.07 89.57 78.06 93.95 80.45 88.67 88.67 86.41 88.62 87.85 93.38 74.27 108.1"></polygon></g></g></g></svg> 