<?xml version="1.0" encoding="UTF-8"?> <svg xmlns="http://www.w3.org/2000/svg" xmlns:xlink="http://www.w3.org/1999/xlink" version="1.1" id="Layer_1" x="0px" y="0px" viewBox="0 0 512 512" style="enable-background:new 0 0 512 512;" xml:space="preserve"> <style type="text/css"> .st0{opacity:0.4;} .st1{fill:#CB218E;} .st2{fill:#FFFFFF;} </style> <g> <g id="egg" class="st0"> <path id="Path_1" class="st1" d="M303,126c97.3,48.8,113.4,135.1,75.6,210.4s-115,109.9-211.9,61.1S-20,226.8,17.4,152 S206.1,76.8,303,126z"></path> </g> <g id="egg-2" class="st0"> <path id="Path_1-2" class="st1" d="M288.1,414.7c-107.9,19.7-173.3-40.6-188.3-124.5s25.6-158.8,133.5-178.4S487,135.9,502,219.8 C516.9,303.7,396,395.1,288.1,414.7z"></path> </g> </g> <g> <path class="st2" d="M182.3,265.1c9.4,0,17.2-7.7,17.2-17.2c0-9.4-7.7-17.2-17.2-17.2s-17.2,7.7-17.2,17.2 C165.2,257.4,172.9,265.1,182.3,265.1z M192,274.5c-3.2-0.5-6.4-0.9-9.7-0.9c-8.5,0-16.6,1.8-23.9,5c-6.4,2.7-10.5,8.9-10.5,15.9 V308h38.6v-13.8C186.6,287.1,188.6,280.4,192,274.5z M319.7,265.1c9.4,0,17.2-7.7,17.2-17.2c0-9.4-7.7-17.2-17.2-17.2 c-9.4,0-17.2,7.7-17.2,17.2C302.5,257.4,310.2,265.1,319.7,265.1z M354,294.5c0-7-4.1-13.1-10.5-15.9c-7.3-3.2-15.4-5-23.9-5 c-3.3,0-6.5,0.3-9.7,0.9c3.4,5.8,5.4,12.5,5.4,19.7V308H354V294.5z M287.4,270.7c-10-4.5-22.4-7.7-36.4-7.7 c-14,0-26.4,3.3-36.4,7.7c-9.3,4.1-15.1,13.4-15.1,23.5V308h103v-13.8C302.5,284.1,296.7,274.8,287.4,270.7z M217.3,290.8 c0.8-2,1.1-3.3,7.8-5.9c8.3-3.3,17.1-4.8,25.9-4.8c8.8,0,17.6,1.5,25.9,4.8c6.6,2.6,7,3.9,7.8,5.9H217.3z M251,222.2 c4.7,0,8.6,3.9,8.6,8.6s-3.9,8.6-8.6,8.6s-8.6-3.9-8.6-8.6S246.3,222.2,251,222.2 M251,205c-14.2,0-25.8,11.5-25.8,25.8 s11.5,25.8,25.8,25.8c14.2,0,25.8-11.5,25.8-25.8S265.2,205,251,205L251,205z"></path> </g> </svg> 